<?xml version="1.0" encoding="UTF-8"?>
<svg version="1.1" xmlns="http://www.w3.org/2000/svg" width="220" height="131">
<path d="M0 0 C12.96307636 10.24431034 18.44884429 23.61560424 20.4375 39.75 C20.59065012 42.61739985 20.62451713 45.48043052 20.640625 48.3515625 C20.64632507 49.15105316 20.65202515 49.95054382 20.65789795 50.77426147 C20.66728845 52.45333556 20.67385805 54.13242757 20.67773438 55.81152344 C20.68749875 58.37467193 20.71860076 60.93703712 20.75 63.5 C20.75652588 65.13801611 20.76177798 66.7760379 20.765625 68.4140625 C20.7779718 69.17562653 20.7903186 69.93719055 20.80303955 70.72183228 C20.78409003 75.25413884 20.22689993 78.13923158 17.4375 81.75 C14.16111861 84.11587715 10.96306476 84.07918422 7 84.125 C5.88753906 84.15335937 4.77507812 84.18171875 3.62890625 84.2109375 C-0.20821607 83.65673868 -1.81796795 82.42977902 -4.5625 79.75 C-6.66617662 75.54264675 -5.87132657 70.11213916 -5.91259766 65.48364258 C-5.92913597 64.12474414 -5.95639921 62.76593195 -5.99462891 61.4074707 C-6.04959607 59.44275314 -6.06816889 57.47712475 -6.0859375 55.51171875 C-6.1156665 53.747677 -6.1156665 53.747677 -6.14599609 51.94799805 C-5.38917249 47.80003472 -3.80714587 46.35273987 -0.5625 43.75 C2.55078125 42.82421875 2.55078125 42.82421875 5.75 42.4375 C6.81863281 42.29699219 7.88726562 42.15648437 8.98828125 42.01171875 C9.79652344 41.92535156 10.60476562 41.83898438 11.4375 41.75 C10.08487696 30.36374036 7.09138646 17.91198134 -1.5625 9.75 C-13.39434457 1.50635091 -26.71922079 0.05325215 -40.7578125 2.25 C-50.46092573 4.62847901 -57.912263 9.44001729 -63.5625 17.75 C-67.66617103 25.42538471 -69.54109354 33.15189187 -70.5625 41.75 C-69.75425781 41.83636719 -68.94601563 41.92273437 -68.11328125 42.01171875 C-67.04464844 42.15222656 -65.97601563 42.29273438 -64.875 42.4375 C-63.29138672 42.62892578 -63.29138672 42.62892578 -61.67578125 42.82421875 C-57.70196623 44.00589273 -56.18202123 45.5568789 -53.5625 48.75 C-52.93139648 51.90039062 -52.93139648 51.90039062 -52.93359375 55.40625 C-52.93069336 57.31083984 -52.93069336 57.31083984 -52.92773438 59.25390625 C-52.95158203 60.57261719 -52.97542969 61.89132813 -53 63.25 C-52.98904297 64.56871094 -52.97808594 65.88742188 -52.96679688 67.24609375 C-53.04954891 78.11419371 -53.04954891 78.11419371 -57.5625 82.75 C-60.36357012 84.15053506 -62.75141681 83.9575504 -65.875 84 C-67.57076172 84.03867188 -67.57076172 84.03867188 -69.30078125 84.078125 C-72.92425168 83.71360821 -74.71366198 82.98873288 -77.5625 80.75 C-80.01672456 77.13411984 -79.82074404 73.72885691 -79.828125 69.44921875 C-79.83003845 68.73578812 -79.8319519 68.02235748 -79.83392334 67.28730774 C-79.83528309 65.77348479 -79.83160129 64.25965009 -79.82324219 62.74584961 C-79.81271303 60.48327662 -79.82305256 58.22152983 -79.8359375 55.95898438 C-79.85574742 37.42604351 -78.14933508 18.89088332 -64.68359375 4.78125 C-48.33116069 -10.32315001 -18.69505419 -12.35966518 0 0 Z " fill="#1DC3DE" transform="translate(139.5625,9.25)"/>
<path d="M0 0 C0.33 0.66 0.66 1.32 1 2 C1.66 2 2.32 2 3 2 C3.80974903 4.84313331 4.12241859 7.35702965 4.11352539 10.30957031 C4.11344986 11.15013977 4.11337433 11.99070923 4.11329651 12.85675049 C4.10813522 13.75480408 4.10297394 14.65285767 4.09765625 15.578125 C4.0962413 16.5046991 4.09482635 17.43127319 4.09336853 18.38592529 C4.08777824 21.34064992 4.0752275 24.29529833 4.0625 27.25 C4.05748375 29.25520724 4.05292106 31.26041567 4.04882812 33.265625 C4.03781199 38.17711263 4.020554 43.0885434 4 48 C3.34 48 2.68 48 2 48 C2 48.66 2 49.32 2 50 C1.01 50.495 1.01 50.495 0 51 C0 51.66 0 52.32 0 53 C-2.41696872 53.05411124 -4.83271787 53.09372278 -7.25 53.125 C-7.93191406 53.14175781 -8.61382812 53.15851563 -9.31640625 53.17578125 C-13.0315375 53.21185049 -15.90907884 53.18812735 -19 51 C-21.10367662 46.79264675 -20.30882657 41.36213916 -20.35009766 36.73364258 C-20.36663597 35.37474414 -20.39389921 34.01593195 -20.43212891 32.6574707 C-20.48709607 30.69275314 -20.50566889 28.72712475 -20.5234375 26.76171875 C-20.54325684 25.58569092 -20.56307617 24.40966309 -20.58349609 23.19799805 C-19.82710377 19.05239846 -18.23585595 17.60826535 -15 15 C-11.85069107 13.95023036 -9.61185544 13.89868405 -6.3125 13.9375 C-5.31863281 13.94652344 -4.32476562 13.95554687 -3.30078125 13.96484375 C-2.16189453 13.98224609 -2.16189453 13.98224609 -1 14 C-1.01160156 13.24074219 -1.02320313 12.48148438 -1.03515625 11.69921875 C-1.04417969 10.70535156 -1.05320313 9.71148437 -1.0625 8.6875 C-1.07410156 7.70136719 -1.08570313 6.71523438 -1.09765625 5.69921875 C-1 3 -1 3 0 0 Z " fill="#0DC0DE" transform="translate(154,38)"/>
<path d="M0 0 C2.05078125 0.03255208 4.1015625 0.06510417 6.15234375 0.09765625 C6.82418993 2.20017486 7.48965343 4.30473388 8.15234375 6.41015625 C8.52359375 7.58191406 8.89484375 8.75367187 9.27734375 9.9609375 C10.15234375 13.09765625 10.15234375 13.09765625 10.15234375 16.09765625 C10.81234375 16.09765625 11.47234375 16.09765625 12.15234375 16.09765625 C12.25546875 15.12828125 12.35859375 14.15890625 12.46484375 13.16015625 C13.09864254 8.61171786 14.59990202 4.40348521 16.15234375 0.09765625 C18.79234375 0.09765625 21.43234375 0.09765625 24.15234375 0.09765625 C29.52821788 20.95604786 29.52821788 20.95604786 29.15234375 28.09765625 C26.84234375 28.09765625 24.53234375 28.09765625 22.15234375 28.09765625 C20.56107485 23.22439525 19.94042154 19.28975029 20.15234375 14.09765625 C19.49234375 14.09765625 18.83234375 14.09765625 18.15234375 14.09765625 C18.01957031 14.773125 17.88679688 15.44859375 17.75 16.14453125 C17.57339844 17.0365625 17.39679687 17.92859375 17.21484375 18.84765625 C16.95380859 20.17023438 16.95380859 20.17023438 16.6875 21.51953125 C16.22865887 23.73000678 15.71898301 25.91277693 15.15234375 28.09765625 C12.84234375 28.09765625 10.53234375 28.09765625 8.15234375 28.09765625 C6.07608062 23.473252 4.45211423 18.99679115 3.15234375 14.09765625 C3.01957031 14.94070312 2.88679688 15.78375 2.75 16.65234375 C2.57339844 17.74804688 2.39679687 18.84375 2.21484375 19.97265625 C2.04082031 21.06320313 1.86679687 22.15375 1.6875 23.27734375 C1.15234375 26.09765625 1.15234375 26.09765625 0.15234375 28.09765625 C-2.15765625 28.09765625 -4.46765625 28.09765625 -6.84765625 28.09765625 C-6.44044773 21.46998654 -5.56206615 14.99435179 -4.34765625 8.47265625 C-4.21705811 7.76173828 -4.08645996 7.05082031 -3.9519043 6.31835938 C-2.76802685 0.14630163 -2.76802685 0.14630163 0 0 Z " fill="#2EC7DF" transform="translate(24.84765625,101.90234375)"/>
<path d="M0 0 C7.77959609 1.06644727 13.86843156 7.1066157 18.66015625 13.06640625 C26.60466373 24.53151179 29.12615106 37.88141394 29.203125 51.6015625 C29.20882507 52.40105316 29.21452515 53.20054382 29.22039795 54.02426147 C29.22978845 55.70333556 29.23635805 57.38242757 29.24023438 59.06152344 C29.24999875 61.62467193 29.28110076 64.18703712 29.3125 66.75 C29.31902588 68.38801611 29.32427798 70.0260379 29.328125 71.6640625 C29.3404718 72.42562653 29.3528186 73.18719055 29.36553955 73.97183228 C29.34658904 78.50437486 28.78868227 81.38862435 26 85 C22.68934493 87.40841061 19.44498416 87.29882258 15.4375 87.3125 C14.30183594 87.32925781 13.16617188 87.34601563 11.99609375 87.36328125 C9 87 9 87 6 84 C11.61 84.33 17.22 84.66 23 85 C22.67 84.01 22.34 83.02 22 82 C22.99 82 23.98 82 25 82 C25 81.34 25 80.68 25 80 C25.66 80 26.32 80 27 80 C26.67 64.82 26.34 49.64 26 34 C25.01 34.33 24.02 34.66 23 35 C22.67 38.63 22.34 42.26 22 46 C21.34 45.67 20.68 45.34 20 45 C19.54296875 42.69921875 19.54296875 42.69921875 19.1875 39.6875 C17.72106007 30.12722106 14.2531645 19.7696202 7 13 C3.4637043 10.69729583 -0.19077677 8.80679168 -4 7 C-5.3342246 6.33511885 -6.66791979 5.66916705 -8 5 C-7.01 5 -6.02 5 -5 5 C-5 4.34 -5 3.68 -5 3 C-2.03 3.495 -2.03 3.495 1 4 C1.33 3.34 1.66 2.68 2 2 C1.34 2 0.68 2 0 2 C0 1.34 0 0.68 0 0 Z " fill="#10BFDD" transform="translate(131,6)"/>
<path d="M0 0 C3.1875 2.25 3.1875 2.25 5 5 C5 6.32 5 7.64 5 9 C2.125 9.125 2.125 9.125 -1 9 C-1.66 8.34 -2.32 7.68 -3 7 C-5.58354218 6.83312552 -5.58354218 6.83312552 -8 7 C-8.33 7.66 -8.66 8.32 -9 9 C-8.25234375 9.18175781 -7.5046875 9.36351563 -6.734375 9.55078125 C-5.74953125 9.80214844 -4.7646875 10.05351563 -3.75 10.3125 C-2.77546875 10.55613281 -1.8009375 10.79976562 -0.796875 11.05078125 C2.07086307 12.0240499 3.85823636 12.86322882 6 15 C6.81984231 18.0701681 6.62830835 20.89772752 6 24 C3.36162435 27.40435568 0.73765968 28.25557181 -3.375 28.9375 C-8.06331871 29.2740571 -10.93544579 28.32260241 -15 26 C-17.1519437 22.77208445 -17.20086443 21.71599191 -17 18 C-14.69 18 -12.38 18 -10 18 C-9.67 18.99 -9.34 19.98 -9 21 C-5.41672247 22.00217064 -5.41672247 22.00217064 -2 21 C-2 20.34 -2 19.68 -2 19 C-2.92683594 18.66226563 -3.85367188 18.32453125 -4.80859375 17.9765625 C-6.00613281 17.53054687 -7.20367187 17.08453125 -8.4375 16.625 C-9.63246094 16.18414062 -10.82742187 15.74328125 -12.05859375 15.2890625 C-15 14 -15 14 -16 12 C-16.68302257 4.9421001 -16.68302257 4.9421001 -14.1875 1.5 C-9.46359288 -0.72301511 -5.1255542 -0.89908522 0 0 Z " fill="#65D3E3" transform="translate(114,102)"/>
<path d="M0 0 C2.31 0 4.62 0 7 0 C7.06058594 1.19238281 7.12117188 2.38476562 7.18359375 3.61328125 C7.26801149 5.17969925 7.35265887 6.74610488 7.4375 8.3125 C7.47681641 9.09818359 7.51613281 9.88386719 7.55664062 10.69335938 C7.59853516 11.45068359 7.64042969 12.20800781 7.68359375 12.98828125 C7.72025146 13.68477783 7.75690918 14.38127441 7.79467773 15.09887695 C7.95581153 17.2216572 7.95581153 17.2216572 9 20 C10.98 20 12.96 20 15 20 C16.11823815 17.76352369 16.19396061 16.35108471 16.31640625 13.8671875 C16.35830078 13.06152344 16.40019531 12.25585938 16.44335938 11.42578125 C16.48267578 10.58402344 16.52199219 9.74226563 16.5625 8.875 C16.60568359 8.02550781 16.64886719 7.17601563 16.69335938 6.30078125 C16.79954236 4.20071777 16.90028497 2.10038052 17 0 C19.31 0 21.62 0 24 0 C24.08774066 3.20815845 24.14063706 6.41600462 24.1875 9.625 C24.21263672 10.52863281 24.23777344 11.43226562 24.26367188 12.36328125 C24.32171795 17.66482254 24.07211599 21.45985656 21 26 C16.33481311 29.11012459 11.45887894 28.72932391 6 28 C2.27237345 25.3687342 0.81709665 23.39373537 0 19 C-0.07818636 17.48604304 -0.10789909 15.96906493 -0.09765625 14.453125 C-0.09443359 13.60878906 -0.09121094 12.76445313 -0.08789062 11.89453125 C-0.07951172 11.02183594 -0.07113281 10.14914063 -0.0625 9.25 C-0.05798828 8.36183594 -0.05347656 7.47367187 -0.04882812 6.55859375 C-0.037074 4.37232671 -0.02064249 2.18619821 0 0 Z " fill="#67D3E5" transform="translate(63,102)"/>
<path d="M0 0 C2.05078125 0.03255208 4.1015625 0.06510417 6.15234375 0.09765625 C6.65992237 1.51162527 7.158093 2.92897354 7.65234375 4.34765625 C7.93078125 5.1365625 8.20921875 5.92546875 8.49609375 6.73828125 C9.15234375 9.09765625 9.15234375 9.09765625 9.15234375 13.09765625 C8.16234375 13.09765625 7.17234375 13.09765625 6.15234375 13.09765625 C6.29671875 13.7009375 6.44109375 14.30421875 6.58984375 14.92578125 C6.77546875 15.725 6.96109375 16.52421875 7.15234375 17.34765625 C7.33796875 18.1365625 7.52359375 18.92546875 7.71484375 19.73828125 C8.15234375 22.09765625 8.15234375 22.09765625 8.15234375 26.09765625 C9.80234375 26.09765625 11.45234375 26.09765625 13.15234375 26.09765625 C13.29542969 25.5253125 13.43851563 24.95296875 13.5859375 24.36328125 C14.44140625 20.94140625 15.296875 17.51953125 16.15234375 14.09765625 C16.81234375 14.09765625 17.47234375 14.09765625 18.15234375 14.09765625 C17.84106859 15.68123084 17.52827086 17.26450618 17.21484375 18.84765625 C16.95380859 20.17023438 16.95380859 20.17023438 16.6875 21.51953125 C16.22865887 23.73000678 15.71898301 25.91277693 15.15234375 28.09765625 C12.84234375 28.09765625 10.53234375 28.09765625 8.15234375 28.09765625 C6.07608062 23.473252 4.45211423 18.99679115 3.15234375 14.09765625 C3.01957031 14.94070312 2.88679688 15.78375 2.75 16.65234375 C2.57339844 17.74804688 2.39679687 18.84375 2.21484375 19.97265625 C2.04082031 21.06320313 1.86679687 22.15375 1.6875 23.27734375 C1.15234375 26.09765625 1.15234375 26.09765625 0.15234375 28.09765625 C-2.15765625 28.09765625 -4.46765625 28.09765625 -6.84765625 28.09765625 C-6.44044773 21.46998654 -5.56206615 14.99435179 -4.34765625 8.47265625 C-4.21705811 7.76173828 -4.08645996 7.05082031 -3.9519043 6.31835938 C-2.76802685 0.14630163 -2.76802685 0.14630163 0 0 Z " fill="#56CADE" transform="translate(24.84765625,101.90234375)"/>
<path d="M0 0 C5.24934383 -0.52493438 5.24934383 -0.52493438 8 0 C12 4.6 12 4.6 12 8 C12.66 8 13.32 8 14 8 C14.28875 7.236875 14.5775 6.47375 14.875 5.6875 C16 3 16 3 18 0 C19.9453125 -0.29296875 19.9453125 -0.29296875 22.125 -0.1875 C23.40375 -0.125625 24.6825 -0.06375 26 0 C24.66291944 3.82891252 22.93901639 6.44452945 20.375 9.5625 C16.6655552 14.65149038 16.39539957 18.45497689 16.8515625 24.62890625 C16.92503906 25.80259766 16.92503906 25.80259766 17 27 C16 28 16 28 12.4375 28.0625 C11.303125 28.041875 10.16875 28.02125 9 28 C9.020625 27.12859375 9.04125 26.2571875 9.0625 25.359375 C8.90920961 16.50685503 7.07368069 11.37278235 1.71484375 4.328125 C0 2 0 2 0 0 Z " fill="#57CFE2" transform="translate(176,102)"/>
<path d="M0 0 C5.28 0 10.56 0 16 0 C16 1.98 16 3.96 16 6 C11.545 6.495 11.545 6.495 7 7 C7 8.32 7 9.64 7 11 C9.97 11 12.94 11 16 11 C16 12.98 16 14.96 16 17 C13.03 17.33 10.06 17.66 7 18 C7.020625 19.464375 7.04125 20.92875 7.0625 22.4375 C7.08392007 23.95832518 7.07179964 25.48071962 7 27 C6.67 27.33 6.34 27.66 6 28 C4.02 28 2.04 28 0 28 C0 18.76 0 9.52 0 0 Z " fill="#15BCD8" transform="translate(150,102)"/>
<path d="M0 0 C-0.56847656 0.23074219 -1.13695312 0.46148437 -1.72265625 0.69921875 C-5.75580089 2.40270054 -9.40924553 4.13730523 -12.9375 6.75 C-16 9 -16 9 -18 9 C-18 10.32 -18 11.64 -18 13 C-14.88667752 12.33131686 -14.88667752 12.33131686 -13.8125 9.9375 C-13.544375 9.298125 -13.27625 8.65875 -13 8 C-10.33333333 8 -7.66666667 8 -5 8 C-5.57878906 8.42925781 -6.15757813 8.85851563 -6.75390625 9.30078125 C-18.77276845 18.39331179 -24.53182618 28.15497889 -26.75 43.3125 C-26.8325 44.199375 -26.915 45.08625 -27 46 C-27.33 46 -27.66 46 -28 46 C-28.18451025 33.33029613 -28.18451025 33.33029613 -27 28 C-26.34 28 -25.68 28 -25 28 C-25.061875 26.88625 -25.061875 26.88625 -25.125 25.75 C-24.99601866 22.91241048 -24.42948778 21.41226062 -23 19 C-23.66 19 -24.32 19 -25 19 C-25 19.66 -25 20.32 -25 21 C-25.495 21.4125 -25.99 21.825 -26.5 22.25 C-28.65847858 24.76822501 -28.21374961 26.79375585 -28 30 C-29.32 30 -30.64 30 -32 30 C-32.495 32.475 -32.495 32.475 -33 35 C-34.7680349 29.69589531 -31.33523486 24.83297317 -29 20 C-24.02609558 10.9044613 -11.83698939 -3.67354843 0 0 Z " fill="#40C8DE" transform="translate(96,5)"/>
<path d="M0 0 C2.31 0 4.62 0 7 0 C7 9.24 7 18.48 7 28 C4.69 28 2.38 28 0 28 C-0.19581346 23.52115561 -0.3802636 19.04191574 -0.5625 14.5625 C-0.61857422 13.28310547 -0.67464844 12.00371094 -0.73242188 10.68554688 C-0.78076172 9.47060547 -0.82910156 8.25566406 -0.87890625 7.00390625 C-0.9260376 5.87799072 -0.97316895 4.7520752 -1.02172852 3.59204102 C-1 1 -1 1 0 0 Z " fill="#15BCD7" transform="translate(131,102)"/>
<path d="M0 0 C8.76397567 1.20138858 14.7411023 8.39266699 20 15 C19.67 15.66 19.34 16.32 19 17 C17.02 16.34 15.04 15.68 13 15 C13.495 15.53625 13.99 16.0725 14.5 16.625 C16.37489544 19.59358445 16.23501425 21.55312427 16 25 C14.51791356 23.06122413 13.08491614 21.13445055 11.78125 19.0703125 C7.69795007 12.8706681 2.60436573 10.13258435 -4 7 C-5.3342246 6.33511885 -6.66791979 5.66916705 -8 5 C-7.01 5 -6.02 5 -5 5 C-5 4.34 -5 3.68 -5 3 C-2.03 3.495 -2.03 3.495 1 4 C1.33 3.34 1.66 2.68 2 2 C1.34 2 0.68 2 0 2 C0 1.34 0 0.68 0 0 Z " fill="#2CC4DE" transform="translate(131,6)"/>
<path d="M0 0 C0.33 0.99 0.66 1.98 1 3 C1.99 3.33 2.98 3.66 4 4 C4 4.66 4 5.32 4 6 C4.72445312 5.96519531 5.44890625 5.93039063 6.1953125 5.89453125 C11.88083266 5.73533669 16.14854007 5.64129697 21 9 C24.15824471 13.73736707 23.37195321 18.82178541 23.37060547 24.39672852 C23.37497836 26.42744854 23.41130537 28.45599267 23.44921875 30.48632812 C23.45501953 32.40928711 23.45501953 32.40928711 23.4609375 34.37109375 C23.46915527 35.54599365 23.47737305 36.72089355 23.48583984 37.93139648 C22.90947395 41.57176984 21.82492754 42.72753228 19 45 C19 42 19 42 20 41 C20.08790975 38.70848583 20.10694038 36.41427476 20.09765625 34.12109375 C20.0962413 33.4344313 20.09482635 32.74776886 20.09336853 32.04029846 C20.08775479 29.83932199 20.07520007 27.63844591 20.0625 25.4375 C20.05748676 23.94856917 20.05292355 22.45963676 20.04882812 20.97070312 C20.03778093 17.31376925 20.02050713 13.65689442 20 10 C10.62708836 8.22876131 10.62708836 8.22876131 2 11 C1.34 11.99 0.68 12.98 0 14 C0 9.38 0 4.76 0 0 Z " fill="#2FC7E0" transform="translate(63,46)"/>
<path d="M0 0 C0.33 0 0.66 0 1 0 C3.06720845 9.49590601 3.34141479 18.77060479 3.31567383 28.4387207 C3.31247445 30.9576192 3.33619667 33.47538318 3.36132812 35.99414062 C3.36359804 37.60937354 3.36430605 39.22460957 3.36328125 40.83984375 C3.372491 41.5857225 3.38170074 42.33160126 3.39118958 43.1000824 C3.35140618 47.5815842 2.74231503 50.42479003 0 54 C-3.31065507 56.40841061 -6.55501584 56.29882258 -10.5625 56.3125 C-11.69816406 56.32925781 -12.83382812 56.34601563 -14.00390625 56.36328125 C-17 56 -17 56 -20 53 C-14.39 53.33 -8.78 53.66 -3 54 C-3.33 53.01 -3.66 52.02 -4 51 C-3.01 51 -2.02 51 -1 51 C-1 50.34 -1 49.68 -1 49 C-0.34 49 0.32 49 1 49 C0.67 32.83 0.34 16.66 0 0 Z " fill="#6ED5E1" transform="translate(157,37)"/>
<path d="M0 0 C2.31 0 4.62 0 7 0 C7.33 0.99 7.66 1.98 8 3 C10.3015411 3.77802187 10.3015411 3.77802187 13 4 C15.30504044 2.66846734 15.30504044 2.66846734 17 1 C17.33 1.99 17.66 2.98 18 4 C17.01 4.495 17.01 4.495 16 5 C17.32 5.66 18.64 6.32 20 7 C20.33 6.01 20.66 5.02 21 4 C21.66 4 22.32 4 23 4 C21.98601968 7.26726992 20.93743422 8.03702873 17.9375 9.8125 C13.54512774 11.47224818 9.47114358 11.37059355 5 10 C1.9375 7.75 1.9375 7.75 0 5 C-0.3125 2.1875 -0.3125 2.1875 0 0 Z " fill="#66D2E0" transform="translate(97,120)"/>
<path d="M0 0 C0.66 0 1.32 0 2 0 C1.34 2.97 0.68 5.94 0 9 C-0.66 9 -1.32 9 -2 9 C-2.33 15.27 -2.66 21.54 -3 28 C-4.32 27.01 -5.64 26.02 -7 25 C-7.33 28.63 -7.66 32.26 -8 36 C-8.33 36 -8.66 36 -9 36 C-9.05834353 32.77090994 -9.09371115 29.54195662 -9.125 26.3125 C-9.15013672 24.94448242 -9.15013672 24.94448242 -9.17578125 23.54882812 C-9.20936169 18.93151773 -9.23556185 15.18067669 -7 11 C-5.68 11 -4.36 11 -3 11 C-3.20625 10.071875 -3.4125 9.14375 -3.625 8.1875 C-4 5 -4 5 -2 2 C-1.34 2 -0.68 2 0 2 C0 1.34 0 0.68 0 0 Z " fill="#17BDD7" transform="translate(71,24)"/>
<path d="M0 0 C1.32 0 2.64 0 4 0 C4.08733513 3.08315385 4.14050127 6.16598827 4.1875 9.25 C4.21263672 10.12269531 4.23777344 10.99539062 4.26367188 11.89453125 C4.33759744 18.35069754 4.33759744 18.35069754 2.67578125 21.546875 C-0.24986187 24.08379631 -2.98823055 24.1161126 -6.6875 24.0625 C-7.89986328 24.04896484 -7.89986328 24.04896484 -9.13671875 24.03515625 C-9.75160156 24.02355469 -10.36648437 24.01195312 -11 24 C-11.33 23.01 -11.66 22.02 -12 21 C-11.37351562 20.95101562 -10.74703125 20.90203125 -10.1015625 20.8515625 C-9.28429687 20.77679688 -8.46703125 20.70203125 -7.625 20.625 C-6.40683594 20.52058594 -6.40683594 20.52058594 -5.1640625 20.4140625 C-2.79665809 20.17107412 -2.79665809 20.17107412 -1 18 C-0.63168919 16.06742145 -0.63168919 16.06742145 -0.5859375 13.8671875 C-0.54726562 13.06152344 -0.50859375 12.25585938 -0.46875 11.42578125 C-0.42234375 10.16314453 -0.42234375 10.16314453 -0.375 8.875 C-0.31699219 7.60076172 -0.31699219 7.60076172 -0.2578125 6.30078125 C-0.16343506 4.20088316 -0.08062414 2.10047109 0 0 Z " fill="#0FBFDC" transform="translate(81,104)"/>
<path d="M0 0 C2.375 -0.125 2.375 -0.125 5 0 C7 2 7 2 7.125 5.125 C7.08375 6.07375 7.0425 7.0225 7 8 C5.68 8.33 4.36 8.66 3 9 C2.86722656 9.66386719 2.73445313 10.32773438 2.59765625 11.01171875 C1.73177083 15.34114583 0.86588542 19.67057292 0 24 C-0.99 24 -1.98 24 -3 24 C-3.55353075 7.1070615 -3.55353075 7.1070615 0 0 Z " fill="#14BEDB" transform="translate(24,104)"/>
<path d="M0 0 C0 6.6 0 13.2 0 20 C-4 19 -4 19 -7 17 C-7.76154749 12.61962607 -7.70965055 8.38541862 -7 4 C-5.27058315 1.69925793 -3.08154009 0 0 0 Z " fill="#8BD7E1" transform="translate(59,62)"/>
<path d="M0 0 C1.98 0.99 3.96 1.98 6 3 C6.08076963 5.45898655 6.14037143 7.91533742 6.1875 10.375 C6.22520508 11.42300781 6.22520508 11.42300781 6.26367188 12.4921875 C6.29296875 14.5234375 6.29296875 14.5234375 6 18 C3 20 3 20 0 20 C0 13.4 0 6.8 0 0 Z " fill="#72CAD9" transform="translate(161,62)"/>
<path d="M0 0 C0.90105469 0.00902344 1.80210937 0.01804688 2.73046875 0.02734375 C3.41753906 0.03894531 4.10460937 0.05054688 4.8125 0.0625 C4.8125 0.7225 4.8125 1.3825 4.8125 2.0625 C0.04942563 3.01511487 -4.3541528 3.14583357 -9.1875 3.0625 C-10.16435365 7.1355403 -10.30295444 10.930707 -10.28515625 15.11328125 C-10.2837413 15.77208786 -10.28232635 16.43089447 -10.28086853 17.10966492 C-10.275305 19.19815762 -10.26275947 21.28654011 -10.25 23.375 C-10.24498028 24.79752449 -10.2404182 26.22005066 -10.23632812 27.64257812 C-10.22534757 31.11592077 -10.20810835 34.58919961 -10.1875 38.0625 C-11.65820312 36.96630859 -11.65820312 36.96630859 -13.1875 35.0625 C-13.77655008 30.96175249 -13.70253005 26.86046039 -13.68847656 22.72070312 C-13.68750618 20.70036371 -13.72907903 18.68385131 -13.7734375 16.6640625 C-13.77601563 15.3853125 -13.77859375 14.1065625 -13.78125 12.7890625 C-13.78833984 11.61939941 -13.79542969 10.44973633 -13.80273438 9.24462891 C-13.00687339 5.12825902 -11.40508615 3.66300671 -8.1875 1.0625 C-5.17259443 0.05753148 -3.14568308 -0.04085303 0 0 Z " fill="#45C8DC" transform="translate(147.1875,51.9375)"/>
<path d="M0 0 C1.65 0.33 3.3 0.66 5 1 C5.66 3.97 6.32 6.94 7 10 C7.33 10 7.66 10 8 10 C8.84681133 15.08086796 9.09038099 19.84828377 9 25 C7.68 24.67 6.36 24.34 5 24 C5 22.02 5 20.04 5 18 C4.34 18 3.68 18 3 18 C3 13.38 3 8.76 3 4 C1.68 4.33 0.36 4.66 -1 5 C-0.67 3.35 -0.34 1.7 0 0 Z " fill="#16BBD7" transform="translate(43,104)"/>
<path d="M0 0 C1.58246707 -0.08153933 3.16616273 -0.13943557 4.75 -0.1875 C6.07257813 -0.23970703 6.07257813 -0.23970703 7.421875 -0.29296875 C10.51205282 0.05818782 11.81735287 0.80731771 14 3 C14.43755786 6.50046286 14.63061159 8.87891273 12.875 12 C10.06863762 13.49672661 7.99840718 12.73294398 5 12 C5.515625 11.5875 6.03125 11.175 6.5625 10.75 C7.036875 10.1725 7.51125 9.595 8 9 C7.77242269 6.83700789 7.77242269 6.83700789 7 5 C6.01 5 5.02 5 4 5 C4 4.34 4 3.68 4 3 C2.68 2.67 1.36 2.34 0 2 C0 1.34 0 0.68 0 0 Z " fill="#15C0DC" transform="translate(106,114)"/>
<path d="M0 0 C2.31 0 4.62 0 7 0 C7 9.24 7 18.48 7 28 C4.69 28 2.38 28 0 28 C-0.19581346 23.52115561 -0.3802636 19.04191574 -0.5625 14.5625 C-0.61857422 13.28310547 -0.67464844 12.00371094 -0.73242188 10.68554688 C-0.78076172 9.47060547 -0.82910156 8.25566406 -0.87890625 7.00390625 C-0.9260376 5.87799072 -0.97316895 4.7520752 -1.02172852 3.59204102 C-1 1 -1 1 0 0 Z M1 1 C1 9.25 1 17.5 1 26 C2.32 26 3.64 26 5 26 C5 17.75 5 9.5 5 1 C3.68 1 2.36 1 1 1 Z " fill="#6FD1E0" transform="translate(131,102)"/>
<path d="M0 0 C-0.11487748 1.58409994 -0.24234508 3.16728963 -0.375 4.75 C-0.44460937 5.63171875 -0.51421875 6.5134375 -0.5859375 7.421875 C-0.99850055 9.99066382 -1.71160957 11.75841015 -3 14 C-4.65 14 -6.3 14 -8 14 C-10.28571429 5.57142857 -10.28571429 5.57142857 -10 1 C-8.68 1 -7.36 1 -6 1 C-6 1.99 -6 2.98 -6 4 C-5.01 4 -4.02 4 -3 4 C-3 3.01 -3 2.02 -3 1 C-1 0 -1 0 0 0 Z " fill="#23C6E1" transform="translate(41,114)"/>
<path d="M0 0 C2.31 0 4.62 0 7 0 C7.06058594 1.18078125 7.12117188 2.3615625 7.18359375 3.578125 C7.26802582 5.1354277 7.35267249 6.69271879 7.4375 8.25 C7.47681641 9.02730469 7.51613281 9.80460937 7.55664062 10.60546875 C7.59853516 11.35957031 7.64042969 12.11367187 7.68359375 12.890625 C7.72025146 13.58188477 7.75690918 14.27314453 7.79467773 14.98535156 C8.00675524 17.06628329 8.44508677 18.98572422 9 21 C8.01 20.67 7.02 20.34 6 20 C6 14.06 6 8.12 6 2 C4.68 2 3.36 2 2 2 C2.11423293 5.06324619 2.24097852 8.12510914 2.375 11.1875 C2.42140625 12.48397461 2.42140625 12.48397461 2.46875 13.80664062 C2.67345389 18.25895022 2.93722933 21.94992587 5 26 C4.01 25.67 3.02 25.34 2 25 C-0.48924107 19.84018242 -0.23443839 14.71477641 -0.125 9.125 C-0.11597656 8.24585937 -0.10695312 7.36671875 -0.09765625 6.4609375 C-0.07424577 4.3071729 -0.0383801 2.15354986 0 0 Z " fill="#6ED2E1" transform="translate(63,102)"/>
<path d="M0 0 C0.33 0 0.66 0 1 0 C1 2.64 1 5.28 1 8 C2.010625 7.62875 3.02125 7.2575 4.0625 6.875 C8.28719343 5.63345744 10.92937233 6.50466739 15 8 C12.64561267 9.42944945 11.51967567 10.08661261 8.75 9.625 C8.1725 9.41875 7.595 9.2125 7 9 C7.33 9.66 7.66 10.32 8 11 C8.99 11.33 9.98 11.66 11 12 C11 12.66 11 13.32 11 14 C11.99 14 12.98 14 14 14 C13.67 14.66 13.34 15.32 13 16 C10.85101768 15.2169216 8.70587905 14.42328757 6.5625 13.625 C5.36753906 13.18414062 4.17257813 12.74328125 2.94140625 12.2890625 C0 11 0 11 -1 9 C-1.18704404 6.30986661 -1.08581391 3.70313823 -1 1 C-0.67 0.67 -0.34 0.34 0 0 Z " fill="#4FCCDE" transform="translate(99,105)"/>
<path d="M0 0 C1.32 0 2.64 0 4 0 C4 6.27 4 12.54 4 19 C3.01 19.33 2.02 19.66 1 20 C0 19 0 19 -0.11352539 17.14233398 C-0.10828857 16.35157471 -0.10305176 15.56081543 -0.09765625 14.74609375 C-0.09443359 13.89208984 -0.09121094 13.03808594 -0.08789062 12.15820312 C-0.07951172 11.26037109 -0.07113281 10.36253906 -0.0625 9.4375 C-0.05798828 8.53580078 -0.05347656 7.63410156 -0.04882812 6.70507812 C-0.03700225 4.46998686 -0.0205222 2.23502563 0 0 Z " fill="#0DBFDC" transform="translate(65,104)"/>
<path d="M0 0 C0.99 0.33 1.98 0.66 3 1 C3 5.95 3 10.9 3 16 C1.35 16 -0.3 16 -2 16 C-2.05402274 13.89611431 -2.09280256 11.79183286 -2.125 9.6875 C-2.14820313 8.51574219 -2.17140625 7.34398438 -2.1953125 6.13671875 C-2 3 -2 3 0 0 Z " fill="#13BDDA" transform="translate(188,113)"/>
<path d="M0 0 C0.66 0 1.32 0 2 0 C2.0990914 4.05664947 2.17157106 8.1128277 2.21972656 12.17041016 C2.23980642 13.5497668 2.26707666 14.92903869 2.30175781 16.30810547 C2.35042817 18.29356979 2.37086418 20.27966254 2.390625 22.265625 C2.41157227 23.45961914 2.43251953 24.65361328 2.45410156 25.88378906 C1.91626463 29.57462274 0.86451808 30.7103679 -2 33 C-2 30 -2 30 -1 29 C-0.84141158 26.85613343 -0.74870702 24.70733162 -0.68359375 22.55859375 C-0.64169922 21.25341797 -0.59980469 19.94824219 -0.55664062 18.60351562 C-0.51682392 17.2148467 -0.47711175 15.82617478 -0.4375 14.4375 C-0.39432011 13.04490817 -0.350706 11.65232972 -0.30664062 10.25976562 C-0.20014124 6.83995199 -0.09813077 3.42006237 0 0 Z " fill="#4AC9DC" transform="translate(84,58)"/>
<path d="M0 0 C0.33 0.66 0.66 1.32 1 2 C3.97 2 6.94 2 10 2 C10 3.98 10 5.96 10 8 C5.545 8.495 5.545 8.495 1 9 C1.020625 10.464375 1.04125 11.92875 1.0625 13.4375 C1.08392007 14.95832518 1.07179964 16.48071962 1 18 C0 19 0 19 -3.0625 19.0625 C-4.031875 19.041875 -5.00125 19.02125 -6 19 C-6 16.69 -6 14.38 -6 12 C-5.67 12 -5.34 12 -5 12 C-5 13.65 -5 15.3 -5 17 C-3.68 17 -2.36 17 -1 17 C-1 13.7 -1 10.4 -1 7 C2.3 7 5.6 7 9 7 C9 5.68 9 4.36 9 3 C6.03 3 3.06 3 0 3 C0 2.01 0 1.02 0 0 Z " fill="#76D0E0" transform="translate(156,111)"/>
<path d="M0 0 C6.27 0 12.54 0 19 0 C19 0.33 19 0.66 19 1 C16.66974815 1.67965679 14.33749542 2.34603153 12 3 C11.32839844 3.19078125 10.65679687 3.3815625 9.96484375 3.578125 C5.87292603 4.68191783 2.2789167 5.21394583 -2 5 C-1.34 3.35 -0.68 1.7 0 0 Z " fill="#0CC0DD" transform="translate(95,5)"/>
<path d="M0 0 C0.66 0.33 1.32 0.66 2 1 C2 3.97 2 6.94 2 10 C2.66 10 3.32 10 4 10 C4.33 11.98 4.66 13.96 5 16 C5.99 16.33 6.98 16.66 8 17 C7.67 12.05 7.34 7.1 7 2 C7.33 2 7.66 2 8 2 C9.19088986 7.38027025 10.2919519 12.45291384 10 18 C7.69 18 5.38 18 3 18 C1.4087311 13.126739 0.78807779 9.19209404 1 4 C0.34 4 -0.32 4 -1 4 C-0.67 2.68 -0.34 1.36 0 0 Z " fill="#70D3E1" transform="translate(44,112)"/>
<path d="M0 0 C4.31392226 0.4793247 6.16569547 1.7457985 9 5 C6.53721199 6.231394 4.7204945 6.07159196 2 6 C2.66 7.32 3.32 8.64 4 10 C0 8.66666667 -4 7.33333333 -8 6 C-7.01 5.67 -6.02 5.34 -5 5 C-5 4.34 -5 3.68 -5 3 C-2.03 3.495 -2.03 3.495 1 4 C1.33 3.34 1.66 2.68 2 2 C1.34 2 0.68 2 0 2 C0 1.34 0 0.68 0 0 Z " fill="#4DCEE2" transform="translate(131,6)"/>
<path d="M0 0 C0.66 0 1.32 0 2 0 C3.13764351 4.26616316 4 7.56486311 4 12 C5.65 12 7.3 12 9 12 C9.21462891 11.14148438 9.21462891 11.14148438 9.43359375 10.265625 C10.2890625 6.84375 11.14453125 3.421875 12 0 C12.66 0 13.32 0 14 0 C13.68872484 1.58357459 13.37592711 3.16684993 13.0625 4.75 C12.88847656 5.63171875 12.71445312 6.5134375 12.53515625 7.421875 C12.07631512 9.63235053 11.56663926 11.81512068 11 14 C8.69 14 6.38 14 4 14 C1.77343836 9.25645564 0.53851968 5.27749285 0 0 Z " fill="#69D0E2" transform="translate(29,116)"/>
<path d="M0 0 C4.74018901 1.83491188 9.36413251 3.91941459 14 6 C14 6.66 14 7.32 14 8 C4.58997722 8.3690205 4.58997722 8.3690205 0 6 C0 4.02 0 2.04 0 0 Z " fill="#15BCD7" transform="translate(98,121)"/>
<path d="M0 0 C0.66 0 1.32 0 2 0 C2 4.95 2 9.9 2 15 C0.68 14.67 -0.64 14.34 -2 14 C-2.05389087 12.04196493 -2.09274217 10.08351091 -2.125 8.125 C-2.14820313 7.03445312 -2.17140625 5.94390625 -2.1953125 4.8203125 C-2 2 -2 2 0 0 Z " fill="#16BCD7" transform="translate(56,64)"/>
<path d="M0 0 C1.32 0.33 2.64 0.66 4 1 C4 5.29 4 9.58 4 14 C2.68 14 1.36 14 0 14 C0 9.38 0 4.76 0 0 Z " fill="#16BCD7" transform="translate(162,65)"/>
<path d="M0 0 C5.28 0 10.56 0 16 0 C16 1.98 16 3.96 16 6 C12.7 6.33 9.4 6.66 6 7 C6 6.34 6 5.68 6 5 C8.64 5 11.28 5 14 5 C14 4.01 14 3.02 14 2 C9.71 2 5.42 2 1 2 C0.67 1.34 0.34 0.68 0 0 Z " fill="#53C8DE" transform="translate(150,102)"/>
<path d="M0 0 C0.33 0.66 0.66 1.32 1 2 C1.66 2 2.32 2 3 2 C3.22786458 4.05078125 3.45572917 6.1015625 3.68359375 8.15234375 C3.81886614 10.01140229 3.81886614 10.01140229 5 11 C5.07226502 12.85287502 5.0838122 14.70833878 5.0625 16.5625 C5.05347656 17.57441406 5.04445312 18.58632813 5.03515625 19.62890625 C5.02355469 20.41136719 5.01195312 21.19382812 5 22 C4.34 21.67 3.68 21.34 3 21 C2.4375 18.55859375 2.4375 18.55859375 2 15.4375 C1.43662872 11.66065896 0.81112752 7.99870895 -0.1875 4.3125 C-0.5896875 2.6728125 -0.5896875 2.6728125 -1 1 C-0.67 0.67 -0.34 0.34 0 0 Z " fill="#55CCDE" transform="translate(148,30)"/>
<path d="M0 0 C2.4375 0.375 2.4375 0.375 5 1 C6.38226016 3.76452033 6.09525387 6.0461363 6.0625 9.125 C6.05347656 10.22070312 6.04445313 11.31640625 6.03515625 12.4453125 C6.02355469 13.28835937 6.01195312 14.13140625 6 15 C5.01 15.495 5.01 15.495 4 16 C3.67 12.04 3.34 8.08 3 4 C1.68 4.33 0.36 4.66 -1 5 C-0.67 3.35 -0.34 1.7 0 0 Z " fill="#0DBFDF" transform="translate(43,104)"/>
<path d="M0 0 C1.11328125 1.60546875 1.11328125 1.60546875 2 4 C1.35546875 6.98828125 1.35546875 6.98828125 0.1875 10.3125 C-1.3590751 14.93660333 -2.54917447 19.15362552 -3 24 C-3.33 24 -3.66 24 -4 24 C-4.18451025 11.33029613 -4.18451025 11.33029613 -3 6 C-2.34 6 -1.68 6 -1 6 C-1.020625 5.195625 -1.04125 4.39125 -1.0625 3.5625 C-1 1 -1 1 0 0 Z " fill="#60CFE3" transform="translate(72,27)"/>
<path d="M0 0 C0 0.99 0 1.98 0 3 C-1.32 3 -2.64 3 -4 3 C-4.33 3.66 -4.66 4.32 -5 5 C-5.33 4.67 -5.66 4.34 -6 4 C-6.66 5.32 -7.32 6.64 -8 8 C-8.99 8 -9.98 8 -11 8 C-11 4 -11 4 -9.609375 2.48046875 C-8.99578125 2.05378906 -8.3821875 1.62710937 -7.75 1.1875 C-6.84507813 0.52814453 -6.84507813 0.52814453 -5.921875 -0.14453125 C-3.53134043 -1.20861066 -2.41448469 -0.87071019 0 0 Z " fill="#0BC1DE" transform="translate(89,10)"/>
<path d="M0 0 C2.64 0 5.28 0 8 0 C9.79217969 5.16569441 10.12029814 8.51053913 9 14 C8.67 14 8.34 14 8 14 C7.93941406 13.37351562 7.87882812 12.74703125 7.81640625 12.1015625 C7.73261719 11.28429687 7.64882813 10.46703125 7.5625 9.625 C7.48128906 8.81289062 7.40007813 8.00078125 7.31640625 7.1640625 C7.10909886 4.95727195 7.10909886 4.95727195 6 3 C4.02 3.33 2.04 3.66 0 4 C0 2.68 0 1.36 0 0 Z " fill="#57C9DC" transform="translate(41,102)"/>
<path d="M0 0 C-0.56847656 0.23074219 -1.13695313 0.46148437 -1.72265625 0.69921875 C-5.76637683 2.40716751 -9.33739769 4.10796386 -12.8125 6.8125 C-16 9 -16 9 -18.19921875 8.63671875 C-18.79347656 8.42660156 -19.38773437 8.21648438 -20 8 C-6.59471128 -1.90825688 -6.59471128 -1.90825688 0 0 Z " fill="#60CDE0" transform="translate(96,5)"/>
<path d="M0 0 C2.64 0 5.28 0 8 0 C9.4783226 2.95664519 9.06032783 5.74229737 9 9 C8.34 7.68 7.68 6.36 7 5 C6.01 5 5.02 5 4 5 C4 4.34 4 3.68 4 3 C2.68 2.67 1.36 2.34 0 2 C0 1.34 0 0.68 0 0 Z " fill="#16BCDA" transform="translate(106,114)"/>
<path d="M0 0 C0.66386719 0.31710938 1.32773437 0.63421875 2.01171875 0.9609375 C5.60924343 2.21184151 9.0439801 2.45190052 12.8125 2.625 C13.85180664 2.68300781 13.85180664 2.68300781 14.91210938 2.7421875 C16.60767015 2.83573568 18.30379712 2.91892364 20 3 C17.24125965 5.75874035 15.53323529 5.29943408 11.6875 5.3125 C10.55699219 5.32925781 9.42648438 5.34601563 8.26171875 5.36328125 C4.71734135 4.96851826 2.80919878 4.16619268 0 2 C0 1.34 0 0.68 0 0 Z " fill="#6CD1E0" transform="translate(62,88)"/>
<path d="M0 0 C0 0.66 0 1.32 0 2 C-4.76307437 2.95261487 -9.1666528 3.08333357 -14 3 C-14.33 3.99 -14.66 4.98 -15 6 C-15.66 6 -16.32 6 -17 6 C-16.05796011 3.4308003 -15.34534325 2.21583953 -13 0.75 C-8.66425705 -0.33393574 -4.44535343 -0.15537158 0 0 Z " fill="#63D2DF" transform="translate(152,52)"/>
<path d="M0 0 C2.31 0 4.62 0 7 0 C7.33 0.99 7.66 1.98 8 3 C10.3015411 3.77802187 10.3015411 3.77802187 13 4 C15.30504044 2.66846734 15.30504044 2.66846734 17 1 C17.33 1.99 17.66 2.98 18 4 C15.27700903 5.85163386 13.91836514 5.99554719 10.5625 5.8125 C7.11226222 5.02560366 4.88076018 4.00780255 2 2 C1.01 3.485 1.01 3.485 0 5 C0 3.35 0 1.7 0 0 Z " fill="#74D6E5" transform="translate(97,120)"/>
<path d="M0 0 C1.65 0 3.3 0 5 0 C5.02893932 3.62498334 5.04677792 7.24993713 5.0625 10.875 C5.07087891 11.90753906 5.07925781 12.94007812 5.08789062 14.00390625 C5.09111328 14.99003906 5.09433594 15.97617188 5.09765625 16.9921875 C5.10289307 17.90339355 5.10812988 18.81459961 5.11352539 19.75341797 C5 22 5 22 4 24 C3.01 24 2.02 24 1 24 C1.32145996 23.4337793 1.64291992 22.86755859 1.97412109 22.28417969 C3.07289756 19.83768931 3.30601568 18.11827998 3.4140625 15.453125 C3.45273438 14.60878906 3.49140625 13.76445313 3.53125 12.89453125 C3.5621875 12.02183594 3.593125 11.14914063 3.625 10.25 C3.66367188 9.36183594 3.70234375 8.47367188 3.7421875 7.55859375 C3.83620873 5.3726002 3.92186143 3.18660938 4 1 C2.68 0.67 1.36 0.34 0 0 Z " fill="#3BBCD1" transform="translate(81,103)"/>
<path d="M0 0 C1.2423696 3.58906773 0.71978657 6.32109087 0 10 C0 10.66 0 11.32 0 12 C-1.32 12 -2.64 12 -4 12 C-4.33 13.65 -4.66 15.3 -5 17 C-6.31831625 13.04505124 -5.27915298 11.69818482 -3.625 7.9375 C-3.16351563 6.87402344 -2.70203125 5.81054688 -2.2265625 4.71484375 C-1.51096033 3.13094722 -0.77727919 1.55455838 0 0 Z " fill="#60D0E2" transform="translate(68,23)"/>
<path d="M0 0 C2.97 0.495 2.97 0.495 6 1 C6.33 2.65 6.66 4.3 7 6 C5.02 6 3.04 6 1 6 C0.67 4.02 0.34 2.04 0 0 Z " fill="#39BDD8" transform="translate(112,105)"/>
<path d="M0 0 C2.05078125 0.03255208 4.1015625 0.06510417 6.15234375 0.09765625 C5.82234375 1.41765625 5.49234375 2.73765625 5.15234375 4.09765625 C3.17234375 3.43765625 1.19234375 2.77765625 -0.84765625 2.09765625 C-0.97140625 3.04640625 -1.09515625 3.99515625 -1.22265625 4.97265625 C-1.84765625 8.09765625 -1.84765625 8.09765625 -3.84765625 10.09765625 C-3.70716107 8.61797301 -3.56010799 7.13891109 -3.41015625 5.66015625 C-3.32894531 4.83644531 -3.24773438 4.01273437 -3.1640625 3.1640625 C-2.76418542 0.55251957 -2.65456026 0.14030445 0 0 Z " fill="#6ED0DE" transform="translate(24.84765625,101.90234375)"/>
<path d="M0 0 C0.66 0 1.32 0 2 0 C1.86722656 0.65226562 1.73445313 1.30453125 1.59765625 1.9765625 C0.65517178 6.6408287 -0.25768703 11.29868454 -1 16 C-3.25668692 12.61496962 -3.18818083 11.87444105 -2.75 8 C-2.66234375 7.13375 -2.5746875 6.2675 -2.484375 5.375 C-2 3 -2 3 0 0 Z " fill="#63D5E5" transform="translate(27,112)"/>
<path d="M0 0 C1.32 0.33 2.64 0.66 4 1 C4.33 2.98 4.66 4.96 5 7 C3.35 7.33 1.7 7.66 0 8 C0 5.36 0 2.72 0 0 Z " fill="#13BDDC" transform="translate(100,105)"/>
<path d="M0 0 C3.81936528 1.55603771 6.26044438 3.95604931 9 7 C9 7.66 9 8.32 9 9 C7.68 9 6.36 9 5 9 C5 7.68 5 6.36 5 5 C2.03 4.505 2.03 4.505 -1 4 C-0.67 2.68 -0.34 1.36 0 0 Z " fill="#51CBDD" transform="translate(140,11)"/>
<path d="M0 0 C2.31 0 4.62 0 7 0 C6.67 1.98 6.34 3.96 6 6 C4.68 5.67 3.36 5.34 2 5 C2 4.34 2 3.68 2 3 C1.01 2.67 0.02 2.34 -1 2 C-0.67 1.34 -0.34 0.68 0 0 Z " fill="#11BEDC" transform="translate(133,11)"/>
<path d="M0 0 C2.64 0 5.28 0 8 0 C6.25 4.875 6.25 4.875 4 6 C4 4.68 4 3.36 4 2 C2.35 2.33 0.7 2.66 -1 3 C-0.67 2.01 -0.34 1.02 0 0 Z " fill="#70D1E1" transform="translate(194,102)"/>
<path d="M0 0 C2.87255066 2.42195448 3.70838919 4.59742703 4.6875 8.1875 C4.93886719 9.08855469 5.19023437 9.98960938 5.44921875 10.91796875 C5.63097656 11.60503906 5.81273437 12.29210938 6 13 C3.9754262 11.06745228 2.57894208 9.36841312 1 7 C0.34 6.67 -0.32 6.34 -1 6 C-0.67 4.02 -0.34 2.04 0 0 Z " fill="#61D0E2" transform="translate(151,23)"/>
<path d="M0 0 C1.9375 0.3125 1.9375 0.3125 4 1 C4.33 1.99 4.66 2.98 5 4 C5.66 4.66 6.32 5.32 7 6 C5.0085944 6.38133299 3.00720923 6.71325582 1 7 C0 6 0 6 -0.0625 2.9375 C-0.041875 1.968125 -0.02125 0.99875 0 0 Z " fill="#32C3DC" transform="translate(98,121)"/>
<path d="M0 0 C0 2.64 0 5.28 0 8 C-1.32 8 -2.64 8 -4 8 C-4.1875 5.125 -4.1875 5.125 -4 2 C-1 0 -1 0 0 0 Z " fill="#0CC1DC" transform="translate(155,120)"/>
<path d="M0 0 C3.875 0.875 3.875 0.875 5 2 C5.04080783 3.99958364 5.04254356 6.00045254 5 8 C3.0625 7.375 3.0625 7.375 1 6 C0.25 2.875 0.25 2.875 0 0 Z " fill="#0CC0DB" transform="translate(26,104)"/>
<path d="M0 0 C1.5 1.25 1.5 1.25 3 3 C3 4.32 3 5.64 3 7 C1.35 7.33 -0.3 7.66 -2 8 C-2.33 7.01 -2.66 6.02 -3 5 C-1.5625 2.3125 -1.5625 2.3125 0 0 Z " fill="#1BBDD7" transform="translate(154,33)"/>
<path d="M0 0 C4.31392226 0.4793247 6.16569547 1.7457985 9 5 C6.13822943 6.43088528 4.06624227 5.59991697 1 5 C1.33 4.01 1.66 3.02 2 2 C1.34 2 0.68 2 0 2 C0 1.34 0 0.68 0 0 Z " fill="#45C9DD" transform="translate(131,6)"/>
<path d="M0 0 C-0.33 3.3 -0.66 6.6 -1 10 C-1.33 9.34 -1.66 8.68 -2 8 C-2.66 8 -3.32 8 -4 8 C-3.74438677 5.6568787 -3.40729228 3.32156597 -3 1 C-1 0 -1 0 0 0 Z " fill="#15BDD8" transform="translate(41,114)"/>
<path d="M0 0 C0.33 1.32 0.66 2.64 1 4 C1.66 4 2.32 4 3 4 C3 5.32 3 6.64 3 8 C1.35 7.67 -0.3 7.34 -2 7 C-2.33 7.99 -2.66 8.98 -3 10 C-2.67 7.69 -2.34 5.38 -2 3 C-1.34 3 -0.68 3 0 3 C0 2.01 0 1.02 0 0 Z " fill="#41C5DA" transform="translate(40,108)"/>
<path d="M0 0 C1.134375 0.020625 2.26875 0.04125 3.4375 0.0625 C3.1075 1.3825 2.7775 2.7025 2.4375 4.0625 C0.4575 4.0625 -1.5225 4.0625 -3.5625 4.0625 C-3.8925 3.0725 -4.2225 2.0825 -4.5625 1.0625 C-3.5625 0.0625 -3.5625 0.0625 0 0 Z " fill="#18BAD3" transform="translate(108.5625,102.9375)"/>
<path d="M0 0 C2.4375 0.6875 2.4375 0.6875 5 2 C5.8125 4.625 5.8125 4.625 6 7 C5.34 7 4.68 7 4 7 C0 2.52941176 0 2.52941176 0 0 Z " fill="#59CCDB" transform="translate(114,114)"/>
<path d="M0 0 C0.33 0 0.66 0 1 0 C1.33 3.63 1.66 7.26 2 11 C1.34 11 0.68 11 0 11 C-1.62651522 7.74696956 -1.11453156 4.60774398 -1 1 C-0.67 0.67 -0.34 0.34 0 0 Z " fill="#5ACDD8" transform="translate(99,105)"/>
<path d="M0 0 C0.99 0 1.98 0 3 0 C3.6875 2.8125 3.6875 2.8125 4 6 C3.01 6.99 2.02 7.98 1 9 C0.67 6.03 0.34 3.06 0 0 Z " fill="#15BDD7" transform="translate(31,115)"/>
<path d="M0 0 C0.33 0 0.66 0 1 0 C1 2.97 1 5.94 1 9 C0.01 8.67 -0.98 8.34 -2 8 C-2.875 6.1875 -2.875 6.1875 -3 4 C-1.625 1.75 -1.625 1.75 0 0 Z " fill="#0AC1DE" transform="translate(66,41)"/>
<path d="M0 0 C2.5 0.125 2.5 0.125 5 1 C6.3125 3.0625 6.3125 3.0625 7 5 C6.34 5.66 5.68 6.32 5 7 C5 5.68 5 4.36 5 3 C2.69 2.67 0.38 2.34 -2 2 C-1.34 1.34 -0.68 0.68 0 0 Z " fill="#55CCDA" transform="translate(78,53)"/>
<path d="M0 0 C4.875 1.875 4.875 1.875 6 3 C6.04080783 4.99958364 6.04254356 7.00045254 6 9 C3.75972706 6.11964908 1.83827868 3.15133488 0 0 Z " fill="#68D5E5" transform="translate(141,22)"/>
<path d="M0 0 C2.0625 0.4375 2.0625 0.4375 4 1 C2.84826645 3.46800047 1.95216435 5.04783565 0 7 C-0.38133299 5.0085944 -0.71325582 3.00720923 -1 1 C-0.67 0.67 -0.34 0.34 0 0 Z " fill="#4ACCDE" transform="translate(192,110)"/>
<path d="M0 0 C0.33 0.99 0.66 1.98 1 3 C0.01 4.485 0.01 4.485 -1 6 C-1.99 5.67 -2.98 5.34 -4 5 C-4 4.01 -4 3.02 -4 2 C-2.68 2 -1.36 2 0 2 C0 1.34 0 0.68 0 0 Z M-6 5 C-5.01 5.495 -5.01 5.495 -4 6 C-4.99 6.495 -4.99 6.495 -6 7 C-6 6.34 -6 5.68 -6 5 Z " fill="#14BED8" transform="translate(196,105)"/>
<path d="M0 0 C0.66 0 1.32 0 2 0 C1 4 1 4 0 8 C-0.99 7.67 -1.98 7.34 -3 7 C-2.01 4.69 -1.02 2.38 0 0 Z " fill="#09C3DE" transform="translate(71,24)"/>
<path d="M0 0 C0.66 0.33 1.32 0.66 2 1 C2 4.3 2 7.6 2 11 C1.67 11 1.34 11 1 11 C1 8.69 1 6.38 1 4 C0.34 4 -0.32 4 -1 4 C-0.67 2.68 -0.34 1.36 0 0 Z " fill="#8BE5ED" transform="translate(44,112)"/>
<path d="M0 0 C2.64 0 5.28 0 8 0 C7.67 0.66 7.34 1.32 7 2 C5.68 1.67 4.36 1.34 3 1 C2.67 2.32 2.34 3.64 2 5 C1.34 3.35 0.68 1.7 0 0 Z " fill="#7DD7E7" transform="translate(176,102)"/>
</svg>
